<svg width="103" height="65" viewBox="0 0 103 65" fill="none" xmlns="http://www.w3.org/2000/svg">
<g filter="url(#filter0_d)">
<path d="M68.9979 41.8442C68.9979 46.8502 67.251 50.7944 63.7574 53.6766C60.2638 56.5589 55.4033 58 49.1759 58C43.4391 58 38.3642 56.8876 33.9512 54.6628V43.7407C37.5798 45.4092 40.6506 46.5849 43.1635 47.2675C45.6764 47.9502 47.9747 48.2915 50.0586 48.2915C52.5594 48.2915 54.4778 47.7985 55.8138 46.8126C57.1501 45.8264 57.8182 44.3599 57.8182 42.4133C57.8182 41.3261 57.524 40.3589 56.9356 39.5119C56.3471 38.6649 55.483 37.8496 54.3431 37.0659C53.203 36.2822 50.8799 35.0308 47.374 33.3116C44.0888 31.7186 41.6249 30.1889 39.9822 28.7226C38.3397 27.2563 37.0282 25.5496 36.0474 23.6027C35.0667 21.656 34.5763 19.3806 34.5763 16.7764C34.5763 11.8717 36.1883 8.01607 39.4123 5.20964C42.6362 2.40322 47.0922 1 52.7802 1C55.5751 1 58.2412 1.34133 60.7786 2.02398C63.3161 2.70663 65.9701 3.66738 68.7403 4.90623L65.0631 14.0457C62.1944 12.8323 59.8224 11.9854 57.947 11.505C56.0714 11.0246 54.2265 10.7845 52.4124 10.7845C50.2547 10.7845 48.5998 11.3027 47.4476 12.3393C46.2954 13.3759 45.7193 14.7285 45.7193 16.3971C45.7193 17.4336 45.9522 18.3375 46.418 19.1087C46.8839 19.8799 47.6255 20.6258 48.643 21.3463C49.6603 22.0669 52.0689 23.3626 55.869 25.2335C60.895 27.7112 64.3397 30.1952 66.203 32.6857C68.0662 35.1761 68.9979 38.2289 68.9979 41.8442Z" fill="#73564F"/>
<path d="M23.6339 43.9548V50.2179L4 32.7145V28.6497L23.6339 8.78204V14.9621L7.65718 30.3502L23.6339 43.9548Z" fill="#73564F"/>
<path d="M79.3153 50.2179V43.9548L95.3124 30.4332L79.3153 14.9621V8.78204L98.9492 28.6497V32.7145L79.3153 50.2179Z" fill="#73564F"/>
</g>
<defs>
<filter id="filter0_d" x="0" y="0" width="102.949" height="65" filterUnits="userSpaceOnUse" color-interpolation-filters="sRGB">
<feFlood flood-opacity="0" result="BackgroundImageFix"/>
<feColorMatrix in="SourceAlpha" type="matrix" values="0 0 0 0 0 0 0 0 0 0 0 0 0 0 0 0 0 0 127 0"/>
<feOffset dy="3"/>
<feGaussianBlur stdDeviation="2"/>
<feColorMatrix type="matrix" values="0 0 0 0 0.54902 0 0 0 0 0.537255 0 0 0 0 0.529412 0 0 0 1 0"/>
<feBlend mode="normal" in2="BackgroundImageFix" result="effect1_dropShadow"/>
<feBlend mode="normal" in="SourceGraphic" in2="effect1_dropShadow" result="shape"/>
</filter>
</defs>
</svg>
