<svg width="49" height="46" fill="none" xmlns="http://www.w3.org/2000/svg"><path d="M7.783 46h15.449V29.648h-5.55v-5.39h5.55V17.52c0-3.716 3.112-6.739 6.937-6.739h6.938v5.39h-5.55c-1.53 0-2.775 1.21-2.775 2.696v5.39h8.075l-.925 5.391h-7.15V46H41.27c3.825 0 6.938-3.023 6.938-6.738V6.738C48.208 3.023 45.095 0 41.27 0H7.783C3.958 0 .846 3.023.846 6.738v32.524C.846 42.977 3.958 46 7.783 46zM3.621 6.738c0-2.229 1.867-4.043 4.162-4.043H41.27c2.295 0 4.162 1.814 4.162 4.043v32.524c0 2.229-1.867 4.043-4.162 4.043h-9.713V32.344h6.726l1.85-10.782h-8.576v-2.695h8.325V8.086H30.17c-5.355 0-9.713 4.232-9.713 9.434v4.043h-5.55v10.78h5.55v10.962H7.783c-2.295 0-4.162-1.814-4.162-4.043V6.738z" fill="#73564F"/></svg>