<svg width="103" height="65" fill="none" xmlns="http://www.w3.org/2000/svg"><g filter="url(#filter0_d)" fill="#73564F"><path d="M68.998 41.844c0 5.006-1.747 8.95-5.24 11.833C60.263 56.559 55.402 58 49.175 58c-5.737 0-10.812-1.112-15.225-3.337V43.74c3.629 1.668 6.7 2.844 9.212 3.526 2.513.683 4.812 1.024 6.896 1.024 2.5 0 4.419-.492 5.755-1.478 1.336-.987 2.004-2.453 2.004-4.4 0-1.087-.294-2.054-.882-2.901-.589-.847-1.453-1.662-2.593-2.446-1.14-.784-3.463-2.035-6.969-3.754-3.285-1.593-5.75-3.123-7.392-4.59a17.154 17.154 0 01-3.935-5.12c-.98-1.946-1.47-4.221-1.47-6.826 0-4.904 1.611-8.76 4.835-11.566C42.636 2.403 47.092 1 52.78 1c2.795 0 5.461.341 7.999 1.024 2.537.683 5.191 1.643 7.961 2.882l-3.677 9.14c-2.869-1.214-5.24-2.06-7.116-2.541-1.876-.48-3.72-.72-5.535-.72-2.157 0-3.812.518-4.964 1.554-1.153 1.037-1.729 2.39-1.729 4.058 0 1.037.233 1.94.699 2.712.466.77 1.208 1.517 2.225 2.237 1.017.72 3.426 2.017 7.226 3.887 5.026 2.478 8.47 4.962 10.334 7.453 1.863 2.49 2.795 5.543 2.795 9.158zm-45.364 2.111v6.263L4 32.714V28.65L23.634 8.782v6.18L7.657 30.35l15.977 13.605zm55.681 6.263v-6.263l15.997-13.522-15.997-15.47V8.781L98.95 28.65v4.065L79.315 50.218z"/></g><defs><filter id="filter0_d" x="0" y="0" width="102.949" height="65" filterUnits="userSpaceOnUse" color-interpolation-filters="sRGB"><feFlood flood-opacity="0" result="BackgroundImageFix"/><feColorMatrix in="SourceAlpha" values="0 0 0 0 0 0 0 0 0 0 0 0 0 0 0 0 0 0 127 0"/><feOffset dy="3"/><feGaussianBlur stdDeviation="2"/><feColorMatrix values="0 0 0 0 0.54902 0 0 0 0 0.537255 0 0 0 0 0.529412 0 0 0 1 0"/><feBlend in2="BackgroundImageFix" result="effect1_dropShadow"/><feBlend in="SourceGraphic" in2="effect1_dropShadow" result="shape"/></filter></defs></svg>