<svg width="48" height="46" fill="none" xmlns="http://www.w3.org/2000/svg"><path d="M23.681 0C10.666 0 0 10.449 0 23.09 0 35.657 10.569 46 23.681 46c13.096 0 23.681-10.327 23.681-22.91C47.362 10.449 36.696 0 23.681 0zm4.163 42.9a21.12 21.12 0 01-4.163.405 21.15 21.15 0 01-4.163-.405v-6.307c0-1.509.417-2.048.972-2.776.282-.314.453-.595 1.72-2.452l-2.137-.324c-5.495-.782-7.659-3.558-8.52-5.714-1.11-2.884-.527-6.496 1.472-8.787.305-.35.555-.943.333-1.563-.417-1.24-.361-3.207-.084-3.962 1.472.204 2.985 1.228 4.246 1.967.582.33.887.243 1.166.27 1.014-.205 2.595-.7 5.023-.7 1.498 0 3.08.215 4.634.646.278-.006.725.223 1.499-.216 1.319-.78 2.78-1.769 4.246-1.967.277.755.333 2.722-.083 3.962-.223.62.027 1.213.333 1.563 1.998 2.291 2.58 5.903 1.47 8.787-.86 2.156-3.024 4.932-8.52 5.714l-2.136.324c1.31 1.92 1.448 2.15 1.72 2.452.555.728.972 1.267.972 2.776V42.9zm2.775-.781v-5.526c0-1.536-.333-2.56-.777-3.315 4.218-1.105 7.215-3.53 8.547-7.008 1.416-3.665.777-8.032-1.582-11.05.417-1.806.417-4.69-.582-6.038-.444-.593-1.055-.916-1.832-.916h-.028c-2.151.113-3.845 1.165-5.66 2.237a20.119 20.119 0 00-5.052-.647c-1.72 0-3.44.242-4.967.647-1.911-1.12-3.589-2.127-5.8-2.237-.694 0-1.305.323-1.749.916-.998 1.348-.998 4.232-.582 6.037-2.36 3.02-2.997 7.412-1.582 11.051 1.332 3.477 4.33 5.903 8.547 7.008-.344.585-.616 1.34-.724 2.361-.852.286-1.59.379-2.278.183-.725-.208-1.29-.678-1.78-1.48-1.102-1.798-2.98-3.266-5.117-3.075l.244 2.685c.99-.089 1.975.928 2.486 1.767.844 1.38 1.982 2.286 3.381 2.687 1.039.298 1.989.29 3.011.079v3.634c-8.075-2.75-13.968-10.242-13.968-19.03 0-11.158 9.417-20.394 20.906-20.394 11.489 0 20.906 9.236 20.906 20.395 0 8.787-5.893 16.28-13.968 19.029z" fill="#73564F"/></svg>