<svg width="48" height="46" fill="none" xmlns="http://www.w3.org/2000/svg"><path d="M7.36 46h33.487c3.826 0 6.938-3.023 6.938-6.738V6.738C47.785 3.023 44.673 0 40.847 0H7.361C3.535 0 .423 3.023.423 6.738v32.524C.423 42.977 3.535 46 7.36 46zM3.199 6.738c0-2.229 1.867-4.043 4.163-4.043h33.486c2.295 0 4.163 1.814 4.163 4.043v32.524c0 2.229-1.868 4.043-4.163 4.043H7.361c-2.296 0-4.163-1.814-4.163-4.043V6.738z" fill="#73564F"/><path d="M24.104 35.129c6.886 0 12.488-5.441 12.488-12.129S30.99 10.871 24.104 10.871c-6.886 0-12.488 5.441-12.488 12.129s5.602 12.129 12.488 12.129zm0-21.563c5.356 0 9.713 4.232 9.713 9.434 0 5.202-4.357 9.434-9.713 9.434-5.356 0-9.713-4.232-9.713-9.434 0-5.202 4.357-9.434 9.713-9.434zm13.087-.654c2.268 0 4.113-1.792 4.113-3.994 0-2.203-1.845-3.995-4.113-3.995-2.268 0-4.113 1.792-4.113 3.995 0 2.202 1.845 3.994 4.113 3.994zm0-5.326c.756 0 1.371.597 1.371 1.332 0 .734-.615 1.331-1.371 1.331s-1.371-.597-1.371-1.331c0-.735.615-1.332 1.371-1.332z" fill="#73564F"/></svg>