<svg width="103" height="28" fill="none" xmlns="http://www.w3.org/2000/svg"><path d="M15.66 27.178c-2.91 0-5.927-.026-8.979-.077l-.692-.008c-1.446-.026-3.087-.051-4.516-.094C.675 26.974.018 26.371 0 25.607c-.017-.79.621-1.435 1.447-1.46h.008c.302-.009.497-.306.382-.57a13.533 13.533 0 01-1.171-5.535c0-2.997.958-5.867 2.768-8.304A14.823 14.823 0 019.51 4.967c.036-.255.089-.493.169-.705.275-.755.71-1.74 1.58-2.59C12.394.56 13.902 0 15.747 0c1.855 0 3.38.577 4.525 1.707A5.709 5.709 0 0121.8 4.415c.036.178.062.374.08.603a14.82 14.82 0 015.989 4.763c1.792 2.428 2.741 5.28 2.741 8.261 0 1.936-.4 3.83-1.171 5.578a.386.386 0 00.355.535h.018c.798.026 1.455.628 1.472 1.393.018.79-.62 1.434-1.446 1.46a528.51 528.51 0 01-13.796.187l-.381-.017z" fill="#fff"/><path d="M10.887 6.08L8.42 7.267 6.735 8.49l-1.881 1.987-1.127 1.74-.763 1.741-.603 2.564-.071 2.318.32 2.089.656 2.318 1.597 2.334h21.683l1.242-2.42.905-2.343.32-3.506-.568-2.963-.994-2.31-1.42-2.046-1.72-1.69-1.482-1.222-2.493-.866-9.45-.136z" fill="#008BCA"/><path d="M28.738 19.621c.08-.5.035-.934-.151-1.324-.24-.493-.675-.85-1.225-1.02-1.055-.313-4.267-1.994-6.254-3.09-.16-.135-.311-.263-.453-.373l.027-.297a9.048 9.048 0 00.612-1.698l.106-.102c.39-.39.675-.968.745-1.503.568-.985.622-2.131.462-2.955l-1.633-.968-.683-.17c-.062-.016.098.187-.142 1.02-.035.118-.035 1.35-.07 1.485-.054.187-.01 1.342-.072 1.546-.035.127-.097.959-.133 1.095-.062.22-.408.993-.47 1.222-.062.221-.213.866-.266 1.096-.045.178-.018.984-.071 1.163-.071.28.816-.017.736.255-.053.203.887.806 1.074.9 1.614.84 2.378 1.154 2.289 1.027l1.41.772c1.1.56 1.872.748 2.556 1.028.07.255.133.704.133 1.35l.337 1.35.337 1.163.515-.985.337-1.664-.053-.323z" fill="#047FA6"/><path d="M5.617 25.616h.7c.382 0 1.633-.052 2.192-.052.78 0 2.52.052 2.919.052h.843c.364 0 1.756-.035 2.28-.035.364 0 1.242.035 1.437.035h.843c.222 0 1.482-.017 1.81-.017.506 0 1.65.017 1.908.017h5.775l.532-.62 1.039-1.945-.666-3.022-.08-1.265-2.794-1.24-2.635-1.384-1.722-.849-.913-.526-6.823.144-.32.085-.896.518-1.286.866-2.13.773-2.617 1.18-.425.441v.535l-.116.484-.993 3.192-.098.204L4.863 25.6c.31.008.665.017.754.017z" fill="#293F6E"/><path d="M24.47 21.99s-.115 2.624 1.056 3.566c.133.11-1.863 0-1.863 0l.097-1.231.71-2.335z" fill="#203456"/><path d="M11.304 7.54l-.249-1.172.045-1.732.674-1.231 1.18-1.18 1.313-.544 1.774-.246 1.42.272 1.145.552.966.976.693 1.053.088 1.316-.195 1.553.603-.254.249.305.106.909-.124.823-.55.909v.662l-.47.374-.31.993-.604 1.545-.736.781-.382.45-.887.858-1.58.085-1.463-.408-.896-.976-.994-1.24-.568-1.952-.381-.247-.284-.382v-.586l-.515-1.18-.08-1.095.293-.569.382.043.337.535z" fill="#FFCDAF"/><path d="M20.93 7.081l-.639-.187.062-1.86-.399-1.332-1.127-1.3-1.197-.619-1.73-.34-1.27.068-.55.238c2.733.28 4.836 2.522 2.937 6.02 0 0-.567.314-1.038.288 0 0-.115.382.231.578 0 0 .586 3.353-.905 3.43l-.683-.102-.213-.161s.204.534.532.534c0 0 .231.332.746.349.133 0-.275.416-.098.365 0 0 .843.11.169.917a2.832 2.832 0 01-.905-.187c-.045-.017-.08.034-.045.068.124.136.94.093.417.51-.16.093-.088.237.062.211.071-.008.133-.017.204-.017.125-.016.276.06.4.068l.435.917 1.055-.246.31-.356 1.056-.094.347-.424-.125-1.206.55-.976.426-1.418.258-.11.355-.9.514-1.3-.142-1.426z" fill="#EBBBA1"/><path d="M15.27 9.373s-.063-.237-.045-.467c0 0-.24.145-.364.408a1.635 1.635 0 00-1.038-.34c-.523.017-.896.247-1.109.331-.053.017-.053.094 0 .11.302.111.976.332 1.66.281 0 0 .177.008.399 0 .097.093.248.314.168.705-.106.5-.612.611-.656 1.078l-.018.025a.587.587 0 01-.106.102c-.08.06-.169.102-.267.153-.186.093-.39.195-.559.348a1.06 1.06 0 00-.328.552 1.12 1.12 0 00.045.595c.026-.196.053-.383.124-.56.062-.17.168-.324.31-.45.142-.128.32-.239.497-.357.089-.06.178-.128.249-.213a.175.175 0 00.035-.05c0 .025.009.059.009.093.08.424.222 0 .222 0s-.08-.798.754-.824l-.045-.84.063-.68zm-2.955-.636c-.044.017-.088-.034-.053-.068a1.471 1.471 0 011.269-.552c.665.042.71.255 1.25.357.151.025.196.212.08.297a.63.63 0 01-.337.127c-.452 0-.71-.305-1.144-.34a2.231 2.231 0 00-1.065.18z" fill="#EBBBA1"/><path d="M14.054 11.539c0 .042 0 .093-.018.135a.356.356 0 01-.08.12 1.095 1.095 0 01-.221.169c-.16.093-.31.17-.435.272-.124.102-.23.229-.293.373a2.071 2.071 0 00-.15.484 1.097 1.097 0 01.017-.535.94.94 0 01.31-.467c.152-.118.329-.195.489-.263.08-.034.16-.068.23-.11a.786.786 0 00.089-.077l.018-.025c.009-.009.009-.017.018-.026a.135.135 0 00.026-.05zm3.194 0c.009.016.018.042.027.059.009.008.009.017.018.025l.017.026c.027.034.053.06.089.076.07.043.15.077.23.11.16.068.338.136.489.264.15.119.266.288.31.467.053.178.053.356.018.535-.036-.17-.08-.34-.151-.484a1.036 1.036 0 00-.293-.374c-.124-.102-.284-.178-.434-.271-.08-.051-.16-.102-.222-.17a.355.355 0 01-.08-.12c-.018-.05-.027-.101-.018-.143zm-1.544.941c-.284 0-.443-.135-.55-.22-.053-.042-.08-.068-.097-.068-.382-.008-.648-.17-.737-.433-.053-.144.063-.331.169-.458.009-.017.026-.017.035-.017.01 0 .027.008.036.017.009.008.009.017.009.025-.01.153 0 .272.035.348.071.145.23.23.47.238.125 0 .204.068.284.136a.51.51 0 00.364.153c.169 0 .249-.068.328-.128.071-.05.151-.11.258-.11h.026a.56.56 0 00.462-.22c.053-.077.088-.196.097-.374 0-.026.027-.034.045-.034.009 0 .026 0 .035.025.08.153.169.365.089.51-.124.246-.39.39-.719.39h-.045c-.017.009-.035.026-.07.051-.107.051-.257.17-.524.17zm-.568-1.23a3.65 3.65 0 00.063-.535c0-.178-.01-.348-.018-.527-.009-.178-.027-.356-.018-.543.009-.187.027-.374.098-.543.018.186.044.356.07.535.027.178.054.356.063.543a2.34 2.34 0 01-.027.56 1.118 1.118 0 01-.23.51zM12.28 8.482c-.045.017-.089-.034-.053-.068.168-.195.558-.467 1.26-.416.674.05.718.255 1.277.357.15.025.23.119.106.195a.425.425 0 01-.292.077c-.462-.009-.684-.23-1.127-.28-.302-.018-.763-.01-1.171.135z" fill="#272A24"/><path d="M12.27 13.406v1.189l1.598.696-.78-1.24-.817-.645zm-.877-5.62l-.426-.84-.506.092-.169.62-.035.951.7 1.24-.07.67.63.349-.142-.951.044-1.401-.027-.73z" fill="#EBBBA1"/><path d="M12.27 14.765l.4 3.812 1.739-.127-.248-.832.195-.383 1.206-1.324-1.783-.696-1.508-.45zm1.837-12.923s-3.078 1.588-2.803 4.89l-.258-.373-.08-.976.409-1.325 1.056-1.417 1.002-.799h.674z" fill="#fff"/><path d="M6.85 20.25c-.035.577.257 4.177-.31 4.822-.09.102-.338.28-.586.459-.328.229 1.677.11 1.677.11l-.204-2.258-.577-3.133z" fill="#203456"/><path d="M12.076 15.206s-1.686.951-2.449 2.692l-.23-.255.452-.942.736-.858 1.242-.705.249.068zm-2.272 1.316s-4.666 1.894-4.835 2.36c-.168.468 0 .782 0 .782l-.443-.535.141-.459.72-.526 1.552-.747 2.448-1.036.293.017.124.144zm2.777-7.378l.772-.238.834.128.107.297-.47.043h-.613l-.63-.23z" fill="#fff"/><path d="M14.666 9.323c-.15-.162-.559-.51-1.1-.485-.523.034-.878.196-1.091.29-.053.025-.053.093.009.11.302.102.985.297 1.668.23l-.23.118c-.027.009-.01.051.017.043.16-.017.461-.068.719-.187a.08.08 0 00.008-.12zm-1.614-.238c.053-.026.142-.06.257-.094.018-.008.035.009.027.026-.01.025-.01.05-.01.076 0 .06.018.11.045.153.009.009 0 .017-.009.017a1.137 1.137 0 01-.32-.127c-.017 0-.017-.034.01-.051zm1.189.187a1.282 1.282 0 01-.267.042c-.017 0-.026-.017-.017-.025a.328.328 0 00.062-.204V9.05c.08.042.16.093.24.161.017.017.008.051-.018.06z" fill="#272A24"/><path d="M18.774 9.136l-.763-.23-.843.128-.097.297.461.043h.621l.621-.238z" fill="#fff"/><path d="M16.751 9.45c.258.12.55.17.719.187.027 0 .035-.034.018-.042l-.231-.12c.683.069 1.366-.127 1.668-.229.053-.017.053-.093 0-.11-.204-.085-.559-.255-1.091-.28-.541-.026-.95.322-1.1.484-.045.025-.027.085.017.11zm1.597-.306c-.097.06-.204.102-.32.128-.008 0-.017-.009-.017-.017a.308.308 0 00.044-.153c0-.026 0-.051-.008-.077 0-.017.008-.034.026-.025.116.025.204.068.258.085.035.008.035.042.017.06zm-1.206.068a.99.99 0 01.24-.161v.034c0 .076.017.144.061.204.01.008 0 .025-.017.025a1.298 1.298 0 01-.267-.042c-.035-.009-.044-.043-.017-.06zm-1.412 3.974c.693 0 .986.102 1.305.102.275 0 .541-.136.541-.136.063.042.178-.034.195-.094.018-.068-.212-.255-.23-.161-.018.093-.222.212-.355.212-.142 0-.559-.306-.852-.322-.133-.009-.372.05-.505.084a.38.38 0 01-.196 0c-.133-.034-.372-.093-.505-.085-.293.018-.71.323-.852.323-.142 0-.337-.119-.355-.212-.018-.094-.248.093-.23.161.017.068.141.136.195.094 0 0 .266.136.54.136.32 0 .613-.102 1.305-.102zm1.199.339c.026-.025-.01-.068-.045-.05-.399.16-.79.212-1.126.203a2.757 2.757 0 01-1.1-.187c-.045-.017-.08.034-.045.068.133.136.364.332.701.434-.018.008-.044.008-.062.016-.071.026-.133.06-.204.094-.16.094-.116.119.035.094.071-.009.133-.026.204-.034a3.149 3.149 0 01.799 0c.097.008.195.025.302.05.035.009.053-.033.026-.05a.997.997 0 00-.266-.145 1.91 1.91 0 00.78-.493z" fill="#272A24"/><path d="M10.257 18.84l-.932-.187c-.195-.042-.292-.246-.195-.407l.266-.484.355.144 1.083.4-.204.373-.373.161z" fill="#203456"/><path d="M15.403 16.268a4.696 4.696 0 00-.932.925.64.64 0 00-.089.628l.275.696 2.023-.025.329-.645a.641.641 0 00-.071-.696c-.284-.349-.648-.629-1.047-.9a.443.443 0 00-.488.017z" fill="#BF3F4A"/><path d="M4.375 20.114s.603.433.736 1.503c.133 1.07.4-.629.089-1.232-.31-.602-.604-.73-.604-.73l-.221.459z" fill="#203456"/><path d="M15.642 16.31s.852.9.799 1.384c-.062.484-.666.815-.666.815h1.056l.488-.909-.594-.704s-.568-.501-.595-.527c-.035-.025-.479-.186-.479-.186v.127h-.009z" fill="#A43447"/><path d="M19.12 8.482c.044.017.089-.034.053-.068-.168-.195-.559-.467-1.26-.416-.674.05-.718.255-1.277.357-.15.025-.23.119-.107.195a.43.43 0 00.293.077c.462-.009.683-.23 1.127-.28.302-.018.763-.01 1.171.135z" fill="#272A24"/><path d="M8.376 25.505c.78 0 2.52.051 2.919.051h.843c.364 0 1.756-.034 2.28-.034.364 0 1.242.034 1.437.034h.843c.222 0 1.482-.017 1.81-.017.506 0 1.65.017 1.907.017h3.398l.799-5.145.124-.705-.736-.51-5.049-.61-4.232-.136-2.954.135-3.016.298-1.633.56-.213.611.772 5.46c.275 0 .524-.009.701-.009z" fill="#E0DFDC"/><path d="M16.893 18.416l1.872.161.142-1.58.186-2.232-1.428.22-1.73.994 1.473 1.664-.515.773z" fill="#fff"/><path d="M18.295 18.662s4.037.705 4.259 2.606c.186 1.64-.515 3.422-4.321 4.33-.86.204 5.518-.05 5.518-.05l.817-5.154-.063-.832-1.038-.544-3.335-.297-1.837-.06z" fill="#C3C3C3"/><path d="M18.446 18.577s-10.957.5-11.543 1.486l-.053-.39.32-.298.949-.238 2.085-.254 3.336-.323 3.15-.034 1.756.05z" fill="#fff"/><path d="M15.838 23.688c.636 0 1.153-.422 1.153-.942s-.517-.943-1.153-.943c-.637 0-1.154.422-1.154.943 0 .52.517.942 1.154.942z" fill="#C3C3C3"/><path d="M20.62 18.56l1.153-.297c.195-.043.293-.246.195-.408l-.266-.484-.355.145-.994.467v.322l.266.255z" fill="#203456"/><path d="M15.855 23.884c-.7 0-1.304-.45-1.402-1.045-.053-.314.098-.56.24-.713a1.664 1.664 0 011.162-.535c.408 0 .878.22 1.162.535.134.153.293.399.24.713-.098.595-.7 1.045-1.402 1.045zm0-1.987c-.31 0-.603.119-.79.322a.713.713 0 00-.212.57c.044.45.479.789 1.002.789.524 0 .958-.34 1.003-.79a.712.712 0 00-.213-.569 1.072 1.072 0 00-.79-.322z" fill="#272A24"/><path d="M29.793 25.42c-.95-.025-1.898-.05-2.848-.068a12.545 12.545 0 002.343-7.31c0-2.717-.861-5.323-2.494-7.53-1.57-2.123-3.726-3.728-6.245-4.662.035-.501.026-.892-.036-1.172a4.397 4.397 0 00-1.18-2.088c-.887-.875-2.085-1.316-3.566-1.316-1.473 0-2.662.433-3.532 1.282-.692.679-1.046 1.494-1.277 2.122-.107.297-.151.68-.116 1.146a13.558 13.558 0 00-6.299 4.653 12.58 12.58 0 00-2.52 7.565c0 2.64.808 5.154 2.343 7.319-.87.017-1.988.042-2.857.068-.204.008-.204.297 0 .297 1.65.05 3.567.076 5.217.102a536.372 536.372 0 0018.099 0c1.659-.026 3.327-.06 4.986-.11.177 0 .186-.29-.018-.298zM20.47 6.453c.008-.034.044-.06.08-.043 4.915 1.902 8.197 6.53 8.197 11.632 0 1.308-.213 2.573-.62 3.778-.045.136-.25.128-.276-.008l-.443-1.987a.914.914 0 01-.01-.348c.045-.246.045-.467-.035-.637a.6.6 0 00-.408-.323c-1.58-.475-6.317-3.09-6.663-3.277a6.653 6.653 0 00-.647-.526.841.841 0 01-.373-.764l.08-.773a7.7 7.7 0 00.7-1.995.293.293 0 01.178-.212.71.71 0 00.186-.128c.24-.238.4-.654.382-.883a.35.35 0 01.062-.204c.55-.806.523-1.884.355-2.479-.08-.263-.204-.433-.373-.492a.495.495 0 00-.381 0c-.018.008-.027 0-.027 0s-.009-.009-.009-.026c.018-.119.027-.212.045-.305zm-.364 11.954l.142.11c-.222-.025-.453-.042-.674-.059-.045 0-.16-.008-.31-.025a.241.241 0 01-.232-.255c.098-1.24.142-2.259.169-2.87.009-.204.257-.314.426-.187.186.145.426.348.692.612.727.704 1.162 1.299 1.242 1.52l-1.393.645c-.204.102-.24.373-.062.51zM20.3 7.43c.018-.042.213-.416.408-.34.045.017.116.11.16.272.142.501.213 1.554-.408 2.335a.167.167 0 00-.036.127c.027.145-.088.586-.275.764.053-.407.089-.823.098-1.256 0-.11.07-.212.177-.246l.01-.009a.171.171 0 00.114-.195c-.062-.323.08-.705.17-.9.017-.042.008-.093-.036-.119-.018-.017-.045-.017-.063-.017a.082.082 0 00-.062.026 4.835 4.835 0 01-.221.152.084.084 0 01-.09 0 .088.088 0 01-.043-.076 2.77 2.77 0 01.097-.518zm-9.023-2.632c.32-.866 1.171-3.175 4.472-3.175 1.384 0 2.493.407 3.309 1.214a4.026 4.026 0 011.082 1.919c.151.67-.07 1.986-.213 2.717-.026.127-.044.237-.062.314-.026.11-.026.22-.017.33 0 .043.009.086.009.12a9.603 9.603 0 01-.462 3.837 6.45 6.45 0 01-.284.722l-.035.068c-.222.467-.55.815-.781 1.027-.009.009-.018.009-.027 0a.018.018 0 01-.017-.017c0-.068.008-.144.008-.229 0-.042-.017-.085-.062-.102-.062-.025-.133 0-.15.06-.169.492-.64 1.621-1.27 1.621-.452 0-.558-.212-.665-.424-.08-.17-.168-.34-.434-.34-.302 0-.408.204-.506.4-.106.211-.213.407-.559.407h-.018c-.594-.009-1.09-1.197-1.277-1.707-.018-.042-.053-.068-.107-.068h-.017c-.054.009-.09.051-.09.11 0 .035 0 .068.01.102 0 .026-.018.035-.027.035-.009 0-.027.008-.044-.009-.258-.212-.612-.552-.816-.951-.32-.722-.524-1.537-.613-2.42a10.574 10.574 0 01.01-2.037c.008-.085.017-.162.035-.247a.505.505 0 00-.027-.254c-.009-.034-.027-.077-.044-.12-.151-.44-.621-2.045-.31-2.903zm7.4 11.521l-.879 1.062c-.07.085-.204.076-.257-.009-.302-.433-.71-.806-1.207-1.146-.053-.034-.035-.119.036-.127.576-.085 1.082-.357 1.375-.705a9.82 9.82 0 00.727-.28c.169-.068.346.05.346.22 0 .17-.035.604-.053.799a.75.75 0 01-.088.186zm.062.79c-.018.357-.054.798-.098 1.29-.355-.025-.683-.042-.736-.05l-.746-.026.187-.314c.035-.05.106-.068.16-.017a.296.296 0 00.434-.034l.665-.891a.074.074 0 01.134.042zm-4.845.357c-.053.076-.168.076-.23.008l-.932-1.002a.63.63 0 01-.168-.382c-.027-.288-.045-.569-.063-.823-.008-.128.143-.213.258-.153.32.178.745.373 1.242.5.24.188.639.366.994.434a.103.103 0 01.053.178c-.453.4-.843.815-1.154 1.24zm.373.857c-.15.009-.302.009-.452.017-.107.009-.577.034-.985.06-.036-.4-.071-.892-.098-1.146 0-.052.071-.077.107-.035l.656.79a.353.353 0 00.515.017c.035-.042.106-.034.133.017l.124.28zm-3.256-.161l-1.304-.4a.212.212 0 01-.124-.322c.47-.764 1.1-1.502 2.005-2.02.248-.145.568.008.594.288.053.705.16 1.58.275 2.428a.28.28 0 01-.257.306h-.027c-.337.026-.683.06-1.02.094.089-.128.027-.323-.142-.374zm1.41-4.169l-.017-.187c.222.297.488.603.807.892.089.076.16.161.222.255a3.36 3.36 0 01-.754-.476.666.666 0 01-.257-.484zm2.219 3.337c.24-.314.523-.586.851-.84a.401.401 0 01.444-.018c.364.238.692.501.95.815.15.179.168.425.061.637l-.195.382c-.328-.008-.656-.008-.976-.008-.346 0-.7.008-1.047.008l-.16-.407a.553.553 0 01.072-.57zm3.903-2.7a4.45 4.45 0 01-.31.11s0-.008-.009-.008l-.009-.009c.16-.152.417-.424.692-.832l-.035.289a.488.488 0 01-.329.45zm-7.24-6.631a.088.088 0 01-.044.05.128.128 0 01-.08 0 1.432 1.432 0 01-.266-.177.11.11 0 00-.124 0c-.035.025-.053.076-.035.11.097.212.24.611.16.942a.126.126 0 00.097.153h.018a.25.25 0 01.168.23c0 .365.01.738.045 1.095.009.06.009.11.017.17 0 .008-.008.017-.008.017-.01 0-.018 0-.027-.009-.186-.178-.293-.628-.275-.773.009-.05-.009-.093-.036-.135-.612-.782-.55-1.834-.399-2.327.045-.161.116-.255.16-.272.018-.008.035-.008.053-.008.186 0 .346.348.355.348.062.161.186.484.222.586zM2.539 18.042c0-5.128 3.3-9.764 8.26-11.649a.079.079 0 01.107.06c.008.068.026.153.035.22.009.051-.035.094-.089.085a.577.577 0 00-.293.026c-.168.068-.292.238-.372.492-.178.595-.204 1.63.328 2.446a.51.51 0 01.089.297c-.009.254.168.611.39.823a.84.84 0 00.178.128c.106.05.177.144.195.246.089.535.248 1.23.648 1.961l.07.968a.807.807 0 01-.399.756 7.437 7.437 0 00-1.304.96c-1.242.474-5.208 2.02-5.758 2.555-.266.254-.302.51-.222.78-.044.247-.337 1.63-.834 3.032a.137.137 0 01-.257 0 11.7 11.7 0 01-.772-4.186zm2.254 7.013a11.904 11.904 0 01-.985-1.639.96.96 0 01-.036-.78c.364-.977.64-1.996.799-2.658a.118.118 0 01.213-.034c.195.297.408.62.532 1.002.018.06.107.042.107-.017-.018-.34-.09-.815-.338-1.163-.39-.535-.523-.832-.221-1.121.372-.357 2.803-1.367 4.587-2.072.106-.042.195.077.133.162-.213.297-.4.62-.55.959-.054.093 0 .204.106.238l1.304.399c.151.05.133.263-.026.28-.994.119-1.988.272-2.964.45a1.01 1.01 0 00-.568.314.863.863 0 00-.186.739l.78 5.179c-.256 0-.505.008-.762.008l-1.34.026a.648.648 0 01-.585-.272zm3.043.246l-.799-5.247a.507.507 0 01.133-.467.586.586 0 01.338-.178c2.732-.51 5.51-.773 8.268-.773 2.76 0 5.536.255 8.27.773a.64.64 0 01.336.178.531.531 0 01.133.467l-.887 5.247c-2.626-.034-5.252-.06-7.878-.06-2.635 0-5.28.018-7.914.06zm16.484.009a.272.272 0 01-.275-.314l.816-4.874a.864.864 0 00-.23-.78.965.965 0 00-.524-.273 44.014 44.014 0 00-2.972-.45.89.89 0 01-.435-.178l-.106-.085a.172.172 0 01.035-.297s1.047-.39 1.287-.654c.08-.093.035-.288-.328-.772-.018-.026-.045-.06-.063-.085-.08-.102.045-.238.16-.17 1.633.875 4.081 2.131 5.164 2.454a.3.3 0 01.195.144c.15.323-.195 1.095-.524 1.842-.266.595-.558 1.257-.71 1.885-.017.085.098.128.143.051.257-.492.674-1.316.887-1.8.044-.102.089-.195.133-.297.053-.119.24-.102.266.026l.382 1.74a1.3 1.3 0 01-.098.858c-.293.603-.63 1.18-1.011 1.723a.753.753 0 01-.657.323c-.355-.009-.7-.009-1.056-.017h-.479z" fill="#272A24"/><path d="M41.005 17.884c-.417.162-1.295.332-2.005.332-1.109 0-1.952-.298-2.59-.917-.834-.782-1.278-2.149-1.251-3.753.044-3.38 2.058-4.78 4.116-4.78.737 0 1.278.136 1.588.28l-.328 1.554c-.275-.136-.648-.213-1.109-.213-1.278 0-2.298.85-2.298 3.26 0 2.234.905 3.04 1.783 3.04.17 0 .302-.017.373-.05v-2.234h-.87v-1.477h2.6v4.958h-.009zm1.42-9.041h1.89v7.752h2.484v1.528h-4.374v-9.28zm10.797 4.483c0 3.498-1.295 4.916-3.14 4.916-2.192 0-3.061-2.225-3.061-4.772 0-2.538 1.055-4.729 3.202-4.729 2.334-.008 3 2.454 3 4.585zm-4.24.161c0 2.106.407 3.184 1.17 3.184.799 0 1.1-1.384 1.1-3.26 0-1.639-.257-3.107-1.108-3.107-.755 0-1.163 1.188-1.163 3.183zm9.253 2.523l-.426 2.122h-1.828l2.103-9.289h2.262l1.89 9.28H60.4l-.417-2.122h-1.748v.008zm1.58-1.402l-.32-1.944c-.098-.56-.222-1.494-.32-2.106h-.035c-.107.62-.249 1.58-.346 2.114l-.355 1.936h1.375zm7.886 3.378c-.275.119-.798.22-1.455.22-2.475 0-3.664-1.952-3.664-4.584 0-3.498 2.032-4.865 3.913-4.865.665 0 1.126.127 1.322.246l-.31 1.52a1.905 1.905 0 00-.88-.187c-1.073 0-2.04.892-2.04 3.184 0 2.216.879 3.082 2.023 3.082.32 0 .683-.068.905-.136l.186 1.52zm2.804-1.976l-.426 2.122h-1.827l2.102-9.289h2.263l1.89 9.28H72.67l-.417-2.122h-1.748v.008zm1.58-1.402l-.32-1.944c-.098-.56-.222-1.494-.32-2.106h-.035c-.106.62-.248 1.58-.346 2.114l-.355 1.936h1.375zm3.477-5.629a9.56 9.56 0 011.916-.179c1.225 0 2.077.272 2.698.824.834.713 1.26 1.944 1.26 3.744 0 1.885-.506 3.21-1.35 3.931-.665.603-1.614.9-2.962.9-.595 0-1.19-.06-1.562-.102V8.98zm1.881 7.717c.098.026.24.026.337.026.914 0 1.704-.85 1.704-3.413 0-1.91-.515-3.065-1.66-3.065-.133 0-.257.008-.381.042v6.41zm9.28-2.648h-2.209v2.513h2.493v1.562h-4.383v-9.28h4.215v1.563h-2.325v2.13h2.21v1.512zm7.506.832a43.318 43.318 0 01-.089-3.083h-.035a49.91 49.91 0 01-.612 2.861l-.843 3.312h-1.34l-.807-3.26a33.575 33.575 0 01-.595-2.913h-.035c-.027 1.01-.098 2.182-.142 3.1l-.169 3.217h-1.614l.7-9.28h1.988l.772 3.362c.266 1.18.514 2.2.683 3.252h.035c.151-1.027.364-2.08.621-3.252l.763-3.362h1.988l.585 9.28h-1.685l-.169-3.235zm4.267 3.243v-3.55l-2.129-5.73h2.014l.657 2.207c.186.603.363 1.29.505 1.97h.027c.124-.67.275-1.342.452-2.012l.568-2.174h1.952l-2.165 5.663v3.626h-1.88z" fill="#fff"/></svg>